<?xml version="1.0" encoding="UTF-8" standalone="no"?>
<!DOCTYPE svg PUBLIC "-//W3C//DTD SVG 1.1//EN"
 "http://www.w3.org/Graphics/SVG/1.1/DTD/svg11.dtd">
<!-- Generated by graphviz version 2.40.1 (20161225.0304)
 -->
<!-- Title: oneDegreeRelationshipsDiagram Pages: 1 -->
<svg width="157pt" height="162pt"
 viewBox="0.00 0.00 157.00 162.20" xmlns="http://www.w3.org/2000/svg" xmlns:xlink="http://www.w3.org/1999/xlink">
<g id="graph0" class="graph" transform="scale(1 1) rotate(0) translate(4 158.2)">
<title>oneDegreeRelationshipsDiagram</title>
<polygon fill="#ffffff" stroke="transparent" points="-4,4 -4,-158.2 153,-158.2 153,4 -4,4"/>
<text text-anchor="middle" x="72.4936" y="-7.3" font-family="Helvetica,sans-Serif" font-size="11.00" fill="#000000">Generated by SchemaSpy</text>
<!-- person -->
<g id="node1" class="node">
<title>person</title>
<g id="a_node1"><a xlink:href="../../tables/person.html" xlink:title="person" target="_top">
<polygon fill="#ffffff" stroke="transparent" points="8,-38.2 8,-150.2 141,-150.2 141,-38.2 8,-38.2"/>
<polygon fill="#f5f5f5" stroke="transparent" points="10.5,-125.2 10.5,-148.2 139.5,-148.2 139.5,-125.2 10.5,-125.2"/>
<polygon fill="none" stroke="#000000" points="10.5,-125.2 10.5,-148.2 139.5,-148.2 139.5,-125.2 10.5,-125.2"/>
<text text-anchor="start" x="15.5" y="-133.8" font-family="Helvetica,sans-Serif" font-weight="bold" font-size="11.00" fill="#000000">person</text>
<text text-anchor="start" x="104.5437" y="-133.3" font-family="Helvetica,sans-Serif" font-size="11.00" fill="#000000">[table]</text>
<polygon fill="#ffffff" stroke="transparent" points="10.5,-103.2 10.5,-125.2 71.5,-125.2 71.5,-103.2 10.5,-103.2"/>
<polygon fill="none" stroke="#000000" points="10.5,-103.2 10.5,-125.2 71.5,-125.2 71.5,-103.2 10.5,-103.2"/>
<text text-anchor="start" x="30.5" y="-110.3" font-family="Helvetica,sans-Serif" font-size="11.00" fill="#000000">id</text>
<polygon fill="none" stroke="#000000" points="71.5,-103.2 71.5,-125.2 139.5,-125.2 139.5,-103.2 71.5,-103.2"/>
<text text-anchor="start" x="74.5" y="-110.9" font-family="Helvetica,sans-Serif" font-size="11.00" fill="#000000">bigint(20)</text>
<polygon fill="#ffffff" stroke="transparent" points="10.5,-81.2 10.5,-103.2 71.5,-103.2 71.5,-81.2 10.5,-81.2"/>
<polygon fill="none" stroke="#000000" points="10.5,-81.2 10.5,-103.2 71.5,-103.2 71.5,-81.2 10.5,-81.2"/>
<text text-anchor="start" x="30.5" y="-88.3" font-family="Helvetica,sans-Serif" font-size="11.00" fill="#000000">name</text>
<polygon fill="none" stroke="#000000" points="71.5,-81.2 71.5,-103.2 139.5,-103.2 139.5,-81.2 71.5,-81.2"/>
<text text-anchor="start" x="74.3315" y="-88.9" font-family="Helvetica,sans-Serif" font-size="11.00" fill="#000000">varchar(255)</text>
<polygon fill="none" stroke="#000000" points="10.5,-59.2 10.5,-81.2 71.5,-81.2 71.5,-59.2 10.5,-59.2"/>
<text text-anchor="start" x="30.5" y="-66.3" font-family="Helvetica,sans-Serif" font-size="11.00" fill="#000000">age</text>
<polygon fill="none" stroke="#000000" points="71.5,-59.2 71.5,-81.2 139.5,-81.2 139.5,-59.2 71.5,-59.2"/>
<text text-anchor="start" x="74.5" y="-66.9" font-family="Helvetica,sans-Serif" font-size="11.00" fill="#000000">smallint(6)</text>
<polygon fill="#ffffff" stroke="transparent" points="10.5,-40.2 10.5,-59.2 32.5,-59.2 32.5,-40.2 10.5,-40.2"/>
<polygon fill="none" stroke="#000000" points="10.5,-40.2 10.5,-59.2 32.5,-59.2 32.5,-40.2 10.5,-40.2"/>
<text text-anchor="start" x="13.5" y="-46.3" font-family="Helvetica,sans-Serif" font-size="11.00" fill="#000000">&lt; 0</text>
<polygon fill="#ffffff" stroke="transparent" points="32.5,-40.2 32.5,-59.2 71.5,-59.2 71.5,-40.2 32.5,-40.2"/>
<polygon fill="none" stroke="#000000" points="32.5,-40.2 32.5,-59.2 71.5,-59.2 71.5,-40.2 32.5,-40.2"/>
<text text-anchor="start" x="36.1105" y="-46.3" font-family="Helvetica,sans-Serif" font-size="11.00" fill="#000000">0 rows</text>
<polygon fill="#ffffff" stroke="transparent" points="71.5,-40.2 71.5,-59.2 139.5,-59.2 139.5,-40.2 71.5,-40.2"/>
<polygon fill="none" stroke="#000000" points="71.5,-40.2 71.5,-59.2 139.5,-59.2 139.5,-40.2 71.5,-40.2"/>
<text text-anchor="start" x="120.9053" y="-46.3" font-family="Helvetica,sans-Serif" font-size="11.00" fill="#000000">0 &gt;</text>
<polygon fill="none" stroke="#000000" stroke-width="2" points="9,-39.2 9,-149.2 140,-149.2 140,-39.2 9,-39.2"/>
</a>
</g>
</g>
</g>
</svg>
