<?xml version="1.0" encoding="UTF-8" standalone="no"?>
<!DOCTYPE svg PUBLIC "-//W3C//DTD SVG 1.1//EN"
 "http://www.w3.org/Graphics/SVG/1.1/DTD/svg11.dtd">
<!-- Generated by graphviz version 2.40.1 (20161225.0304)
 -->
<!-- Title: oneDegreeRelationshipsDiagram Pages: 1 -->
<svg width="181pt" height="228pt"
 viewBox="0.00 0.00 181.00 228.20" xmlns="http://www.w3.org/2000/svg" xmlns:xlink="http://www.w3.org/1999/xlink">
<g id="graph0" class="graph" transform="scale(1 1) rotate(0) translate(4 224.2)">
<title>oneDegreeRelationshipsDiagram</title>
<polygon fill="#ffffff" stroke="transparent" points="-4,4 -4,-224.2 177,-224.2 177,4 -4,4"/>
<text text-anchor="middle" x="72.4936" y="-7.3" font-family="Helvetica,sans-Serif" font-size="11.00" fill="#000000">Generated by SchemaSpy</text>
<!-- user -->
<g id="node1" class="node">
<title>user</title>
<g id="a_node1"><a xlink:href="../../tables/user.html" xlink:title="user" target="_top">
<polygon fill="#ffffff" stroke="transparent" points="8,-38.2 8,-216.2 165,-216.2 165,-38.2 8,-38.2"/>
<polygon fill="#f5f5f5" stroke="transparent" points="10.5,-191.2 10.5,-214.2 163.5,-214.2 163.5,-191.2 10.5,-191.2"/>
<polygon fill="none" stroke="#000000" points="10.5,-191.2 10.5,-214.2 163.5,-214.2 163.5,-191.2 10.5,-191.2"/>
<text text-anchor="start" x="15.3042" y="-199.8" font-family="Helvetica,sans-Serif" font-weight="bold" font-size="11.00" fill="#000000">user</text>
<text text-anchor="start" x="128.5437" y="-199.3" font-family="Helvetica,sans-Serif" font-size="11.00" fill="#000000">[table]</text>
<polygon fill="#ffffff" stroke="transparent" points="10.5,-169.2 10.5,-191.2 95.5,-191.2 95.5,-169.2 10.5,-169.2"/>
<polygon fill="none" stroke="#000000" points="10.5,-169.2 10.5,-191.2 95.5,-191.2 95.5,-169.2 10.5,-169.2"/>
<text text-anchor="start" x="30.5" y="-176.3" font-family="Helvetica,sans-Serif" font-size="11.00" fill="#000000">id</text>
<polygon fill="none" stroke="#000000" points="95.5,-169.2 95.5,-191.2 163.5,-191.2 163.5,-169.2 95.5,-169.2"/>
<text text-anchor="start" x="98.5" y="-176.9" font-family="Helvetica,sans-Serif" font-size="11.00" fill="#000000">bigint(20)</text>
<polygon fill="#ffffff" stroke="transparent" points="10.5,-147.2 10.5,-169.2 95.5,-169.2 95.5,-147.2 10.5,-147.2"/>
<polygon fill="none" stroke="#000000" points="10.5,-147.2 10.5,-169.2 95.5,-169.2 95.5,-147.2 10.5,-147.2"/>
<text text-anchor="start" x="30.5" y="-154.3" font-family="Helvetica,sans-Serif" font-size="11.00" fill="#000000">name</text>
<polygon fill="none" stroke="#000000" points="95.5,-147.2 95.5,-169.2 163.5,-169.2 163.5,-147.2 95.5,-147.2"/>
<text text-anchor="start" x="98.3315" y="-154.9" font-family="Helvetica,sans-Serif" font-size="11.00" fill="#000000">varchar(255)</text>
<polygon fill="#ffffff" stroke="transparent" points="10.5,-125.2 10.5,-147.2 95.5,-147.2 95.5,-125.2 10.5,-125.2"/>
<polygon fill="none" stroke="#000000" points="10.5,-125.2 10.5,-147.2 95.5,-147.2 95.5,-125.2 10.5,-125.2"/>
<text text-anchor="start" x="30.5" y="-132.3" font-family="Helvetica,sans-Serif" font-size="11.00" fill="#000000">age</text>
<polygon fill="none" stroke="#000000" points="95.5,-125.2 95.5,-147.2 163.5,-147.2 163.5,-125.2 95.5,-125.2"/>
<text text-anchor="start" x="98.5" y="-132.9" font-family="Helvetica,sans-Serif" font-size="11.00" fill="#000000">float(24)</text>
<polygon fill="none" stroke="#000000" points="10.5,-103.2 10.5,-125.2 95.5,-125.2 95.5,-103.2 10.5,-103.2"/>
<text text-anchor="start" x="30.5" y="-110.3" font-family="Helvetica,sans-Serif" font-size="11.00" fill="#000000">status</text>
<polygon fill="none" stroke="#000000" points="95.5,-103.2 95.5,-125.2 163.5,-125.2 163.5,-103.2 95.5,-103.2"/>
<text text-anchor="start" x="98.0301" y="-110.9" font-family="Helvetica,sans-Serif" font-size="11.00" fill="#000000">smallint(255)</text>
<polygon fill="none" stroke="#000000" points="10.5,-81.2 10.5,-103.2 95.5,-103.2 95.5,-81.2 10.5,-81.2"/>
<text text-anchor="start" x="30.5" y="-88.3" font-family="Helvetica,sans-Serif" font-size="11.00" fill="#000000">updated_at</text>
<polygon fill="none" stroke="#000000" points="95.5,-81.2 95.5,-103.2 163.5,-103.2 163.5,-81.2 95.5,-81.2"/>
<text text-anchor="start" x="98.5" y="-88.9" font-family="Helvetica,sans-Serif" font-size="11.00" fill="#000000">timestamp</text>
<polygon fill="none" stroke="#000000" points="10.5,-59.2 10.5,-81.2 95.5,-81.2 95.5,-59.2 10.5,-59.2"/>
<text text-anchor="start" x="30.5" y="-66.3" font-family="Helvetica,sans-Serif" font-size="11.00" fill="#000000">created_at</text>
<polygon fill="none" stroke="#000000" points="95.5,-59.2 95.5,-81.2 163.5,-81.2 163.5,-59.2 95.5,-59.2"/>
<text text-anchor="start" x="98.5" y="-66.9" font-family="Helvetica,sans-Serif" font-size="11.00" fill="#000000">timestamp</text>
<polygon fill="#ffffff" stroke="transparent" points="10.5,-40.2 10.5,-59.2 44.5,-59.2 44.5,-40.2 10.5,-40.2"/>
<polygon fill="none" stroke="#000000" points="10.5,-40.2 10.5,-59.2 44.5,-59.2 44.5,-40.2 10.5,-40.2"/>
<text text-anchor="start" x="13.5" y="-46.3" font-family="Helvetica,sans-Serif" font-size="11.00" fill="#000000">&lt; 0</text>
<polygon fill="#ffffff" stroke="transparent" points="44.5,-40.2 44.5,-59.2 95.5,-59.2 95.5,-40.2 44.5,-40.2"/>
<polygon fill="none" stroke="#000000" points="44.5,-40.2 44.5,-59.2 95.5,-59.2 95.5,-40.2 44.5,-40.2"/>
<text text-anchor="start" x="60.1105" y="-46.3" font-family="Helvetica,sans-Serif" font-size="11.00" fill="#000000">0 rows</text>
<polygon fill="#ffffff" stroke="transparent" points="95.5,-40.2 95.5,-59.2 163.5,-59.2 163.5,-40.2 95.5,-40.2"/>
<polygon fill="none" stroke="#000000" points="95.5,-40.2 95.5,-59.2 163.5,-59.2 163.5,-40.2 95.5,-40.2"/>
<text text-anchor="start" x="144.9053" y="-46.3" font-family="Helvetica,sans-Serif" font-size="11.00" fill="#000000">0 &gt;</text>
<polygon fill="none" stroke="#000000" stroke-width="2" points="9,-39.2 9,-215.2 164,-215.2 164,-39.2 9,-39.2"/>
</a>
</g>
</g>
</g>
</svg>
