<?xml version="1.0" encoding="UTF-8" standalone="no"?>
<!DOCTYPE svg PUBLIC "-//W3C//DTD SVG 1.1//EN"
 "http://www.w3.org/Graphics/SVG/1.1/DTD/svg11.dtd">
<!-- Generated by graphviz version 2.40.1 (20161225.0304)
 -->
<!-- Title: compactRelationshipsDiagram Pages: 1 -->
<svg width="260pt" height="177pt"
 viewBox="0.00 0.00 260.00 177.20" xmlns="http://www.w3.org/2000/svg" xmlns:xlink="http://www.w3.org/1999/xlink">
<g id="graph0" class="graph" transform="scale(1 1) rotate(0) translate(4 173.2)">
<title>compactRelationshipsDiagram</title>
<polygon fill="#ffffff" stroke="transparent" points="-4,4 -4,-173.2 256,-173.2 256,4 -4,4"/>
<text text-anchor="middle" x="72.4936" y="-7.3" font-family="Helvetica,sans-Serif" font-size="11.00" fill="#000000">Generated by SchemaSpy</text>
<!-- sub_test -->
<g id="node1" class="node">
<title>sub_test</title>
<g id="a_node1"><a xlink:href="../../tables/sub_test.html" xlink:title="sub_test" target="_top">
<polygon fill="#ffffff" stroke="transparent" points="8,-53.2 8,-136.2 96,-136.2 96,-53.2 8,-53.2"/>
<polygon fill="#f5f5f5" stroke="transparent" points="8,-112.7 8,-135.7 96,-135.7 96,-112.7 8,-112.7"/>
<polygon fill="none" stroke="#000000" points="8,-112.7 8,-135.7 96,-135.7 96,-112.7 8,-112.7"/>
<text text-anchor="start" x="13" y="-121.3" font-family="Helvetica,sans-Serif" font-weight="bold" font-size="11.00" fill="#000000">sub_test</text>
<text text-anchor="start" x="61.5219" y="-120.8" font-family="Helvetica,sans-Serif" font-size="11.00" fill="#000000">[table]</text>
<polygon fill="#ffffff" stroke="transparent" points="8,-90.7 8,-112.7 96,-112.7 96,-90.7 8,-90.7"/>
<polygon fill="none" stroke="#000000" points="8,-90.7 8,-112.7 96,-112.7 96,-90.7 8,-90.7"/>
<text text-anchor="start" x="37" y="-97.8" font-family="Helvetica,sans-Serif" font-size="11.00" fill="#000000">id</text>
<polygon fill="none" stroke="#000000" points="8,-71.7 8,-90.7 96,-90.7 96,-71.7 8,-71.7"/>
<text text-anchor="start" x="11" y="-77.8" font-family="Helvetica,sans-Serif" font-size="11.00" fill="#000000">...</text>
<polygon fill="#ffffff" stroke="transparent" points="8,-52.7 8,-71.7 28,-71.7 28,-52.7 8,-52.7"/>
<polygon fill="none" stroke="#000000" points="8,-52.7 8,-71.7 28,-71.7 28,-52.7 8,-52.7"/>
<text text-anchor="start" x="11" y="-58.8" font-family="Helvetica,sans-Serif" font-size="11.00" fill="#000000"> &#160;</text>
<polygon fill="#ffffff" stroke="transparent" points="28,-52.7 28,-71.7 70,-71.7 70,-52.7 28,-52.7"/>
<polygon fill="none" stroke="#000000" points="28,-52.7 28,-71.7 70,-71.7 70,-52.7 28,-52.7"/>
<text text-anchor="start" x="34.6105" y="-58.8" font-family="Helvetica,sans-Serif" font-size="11.00" fill="#000000">0 rows</text>
<polygon fill="#ffffff" stroke="transparent" points="70,-52.7 70,-71.7 96,-71.7 96,-52.7 70,-52.7"/>
<polygon fill="none" stroke="#000000" points="70,-52.7 70,-71.7 96,-71.7 96,-52.7 70,-52.7"/>
<text text-anchor="start" x="77.4053" y="-58.8" font-family="Helvetica,sans-Serif" font-size="11.00" fill="#000000">2 &gt;</text>
</a>
</g>
</g>
<!-- test -->
<g id="node2" class="node">
<title>test</title>
<g id="a_node2"><a xlink:href="../../tables/test.html" xlink:title="test" target="_top">
<polygon fill="#ffffff" stroke="transparent" points="145,-38.2 145,-165.2 244,-165.2 244,-38.2 145,-38.2"/>
<polygon fill="#f5f5f5" stroke="transparent" points="145.5,-141.7 145.5,-164.7 244.5,-164.7 244.5,-141.7 145.5,-141.7"/>
<polygon fill="none" stroke="#000000" points="145.5,-141.7 145.5,-164.7 244.5,-164.7 244.5,-141.7 145.5,-141.7"/>
<text text-anchor="start" x="150.1357" y="-150.3" font-family="Helvetica,sans-Serif" font-weight="bold" font-size="11.00" fill="#000000">test</text>
<text text-anchor="start" x="209.5437" y="-149.8" font-family="Helvetica,sans-Serif" font-size="11.00" fill="#000000">[table]</text>
<polygon fill="#ffffff" stroke="transparent" points="145.5,-119.7 145.5,-141.7 244.5,-141.7 244.5,-119.7 145.5,-119.7"/>
<polygon fill="none" stroke="#000000" points="145.5,-119.7 145.5,-141.7 244.5,-141.7 244.5,-119.7 145.5,-119.7"/>
<text text-anchor="start" x="165.5" y="-126.8" font-family="Helvetica,sans-Serif" font-size="11.00" fill="#000000">id</text>
<polygon fill="#ffffff" stroke="transparent" points="145.5,-97.7 145.5,-119.7 244.5,-119.7 244.5,-97.7 145.5,-97.7"/>
<polygon fill="none" stroke="#000000" points="145.5,-97.7 145.5,-119.7 244.5,-119.7 244.5,-97.7 145.5,-97.7"/>
<image xlink:href="../../images/foreignKeys.png" width="11px" height="12px" preserveAspectRatio="xMinYMin meet" x="150.5" y="-114.7"/>
<text text-anchor="start" x="165.5" y="-104.8" font-family="Helvetica,sans-Serif" font-size="11.00" fill="#000000">sub_id</text>
<polygon fill="none" stroke="#000000" points="145.5,-75.7 145.5,-97.7 244.5,-97.7 244.5,-75.7 145.5,-75.7"/>
<image xlink:href="../../images/foreignKeys.png" width="11px" height="12px" preserveAspectRatio="xMinYMin meet" x="150.5" y="-92.7"/>
<text text-anchor="start" x="165.5" y="-82.8" font-family="Helvetica,sans-Serif" font-size="11.00" fill="#000000">sub_category</text>
<polygon fill="none" stroke="#000000" points="145.5,-56.7 145.5,-75.7 244.5,-75.7 244.5,-56.7 145.5,-56.7"/>
<text text-anchor="start" x="148.5" y="-62.8" font-family="Helvetica,sans-Serif" font-size="11.00" fill="#000000">...</text>
<polygon fill="#ffffff" stroke="transparent" points="145.5,-37.7 145.5,-56.7 180.5,-56.7 180.5,-37.7 145.5,-37.7"/>
<polygon fill="none" stroke="#000000" points="145.5,-37.7 145.5,-56.7 180.5,-56.7 180.5,-37.7 145.5,-37.7"/>
<text text-anchor="start" x="148.5" y="-43.8" font-family="Helvetica,sans-Serif" font-size="11.00" fill="#000000">&lt; 2</text>
<polygon fill="#ffffff" stroke="transparent" points="180.5,-37.7 180.5,-56.7 225.5,-56.7 225.5,-37.7 180.5,-37.7"/>
<polygon fill="none" stroke="#000000" points="180.5,-37.7 180.5,-56.7 225.5,-56.7 225.5,-37.7 180.5,-37.7"/>
<text text-anchor="start" x="190.1105" y="-43.8" font-family="Helvetica,sans-Serif" font-size="11.00" fill="#000000">0 rows</text>
<polygon fill="#ffffff" stroke="transparent" points="225.5,-37.7 225.5,-56.7 244.5,-56.7 244.5,-37.7 225.5,-37.7"/>
<polygon fill="none" stroke="#000000" points="225.5,-37.7 225.5,-56.7 244.5,-56.7 244.5,-37.7 225.5,-37.7"/>
<text text-anchor="start" x="235.3862" y="-43.8" font-family="Helvetica,sans-Serif" font-size="11.00" fill="#000000"> &#160;</text>
</a>
</g>
</g>
<!-- test&#45;&gt;sub_test -->
<g id="edge1" class="edge">
<title>test:w&#45;&gt;sub_test:e</title>
<path fill="none" stroke="#000000" d="M130.7904,-86.9936C121.9238,-87.328 112.9325,-87.9218 104.3511,-88.6366"/>
<polygon fill="#000000" stroke="#000000" points="137.5016,-86.8597 145.5719,-90.2993 141.5008,-86.7799 145.5,-86.7 145.5,-86.7 145.5,-86.7 141.5008,-86.7799 145.4281,-83.1007 137.5016,-86.8597 137.5016,-86.8597"/>
<ellipse fill="none" stroke="#000000" cx="134.3022" cy="-86.9236" rx="3.2" ry="3.2"/>
</g>
<!-- test&#45;&gt;sub_test -->
<g id="edge2" class="edge">
<title>test:w&#45;&gt;sub_test:e</title>
<path fill="none" stroke="#000000" d="M130.7828,-107.4807C119.3813,-105.4751 112.317,-101.7 96,-101.7"/>
<polygon fill="#000000" stroke="#000000" points="137.5273,-108.0394 145.2027,-112.2877 141.5137,-108.3697 145.5,-108.7 145.5,-108.7 145.5,-108.7 141.5137,-108.3697 145.7973,-105.1123 137.5273,-108.0394 137.5273,-108.0394"/>
<ellipse fill="none" stroke="#000000" cx="134.3382" cy="-107.7752" rx="3.2" ry="3.2"/>
</g>
</g>
</svg>
