<?xml version="1.0" encoding="UTF-8" standalone="no"?>
<!DOCTYPE svg PUBLIC "-//W3C//DTD SVG 1.1//EN"
 "http://www.w3.org/Graphics/SVG/1.1/DTD/svg11.dtd">
<!-- Generated by graphviz version 2.40.1 (20161225.0304)
 -->
<!-- Title: largeRelationshipsDiagram Pages: 1 -->
<svg width="260pt" height="598pt"
 viewBox="0.00 0.00 260.00 598.20" xmlns="http://www.w3.org/2000/svg" xmlns:xlink="http://www.w3.org/1999/xlink">
<g id="graph0" class="graph" transform="scale(1 1) rotate(0) translate(4 594.2)">
<title>largeRelationshipsDiagram</title>
<polygon fill="#ffffff" stroke="transparent" points="-4,4 -4,-594.2 256,-594.2 256,4 -4,4"/>
<text text-anchor="middle" x="72.4936" y="-7.3" font-family="Helvetica,sans-Serif" font-size="11.00" fill="#000000">Generated by SchemaSpy</text>
<!-- sub_test -->
<g id="node1" class="node">
<title>sub_test</title>
<g id="a_node1"><a xlink:href="../../tables/sub_test.html" xlink:title="sub_test" target="_top">
<polygon fill="#ffffff" stroke="transparent" points="8,-478.2 8,-564.2 96,-564.2 96,-478.2 8,-478.2"/>
<polygon fill="#f5f5f5" stroke="transparent" points="8,-541.2 8,-564.2 96,-564.2 96,-541.2 8,-541.2"/>
<polygon fill="none" stroke="#000000" points="8,-541.2 8,-564.2 96,-564.2 96,-541.2 8,-541.2"/>
<text text-anchor="start" x="13" y="-549.8" font-family="Helvetica,sans-Serif" font-weight="bold" font-size="11.00" fill="#000000">sub_test</text>
<text text-anchor="start" x="61.5219" y="-549.3" font-family="Helvetica,sans-Serif" font-size="11.00" fill="#000000">[table]</text>
<polygon fill="#ffffff" stroke="transparent" points="8,-519.2 8,-541.2 96,-541.2 96,-519.2 8,-519.2"/>
<polygon fill="none" stroke="#000000" points="8,-519.2 8,-541.2 96,-541.2 96,-519.2 8,-519.2"/>
<text text-anchor="start" x="37" y="-526.3" font-family="Helvetica,sans-Serif" font-size="11.00" fill="#000000">id</text>
<polygon fill="none" stroke="#000000" points="8,-497.2 8,-519.2 96,-519.2 96,-497.2 8,-497.2"/>
<text text-anchor="start" x="37" y="-504.3" font-family="Helvetica,sans-Serif" font-size="11.00" fill="#000000">category</text>
<polygon fill="#ffffff" stroke="transparent" points="8,-478.2 8,-497.2 28,-497.2 28,-478.2 8,-478.2"/>
<polygon fill="none" stroke="#000000" points="8,-478.2 8,-497.2 28,-497.2 28,-478.2 8,-478.2"/>
<text text-anchor="start" x="11" y="-484.3" font-family="Helvetica,sans-Serif" font-size="11.00" fill="#000000"> &#160;</text>
<polygon fill="#ffffff" stroke="transparent" points="28,-478.2 28,-497.2 70,-497.2 70,-478.2 28,-478.2"/>
<polygon fill="none" stroke="#000000" points="28,-478.2 28,-497.2 70,-497.2 70,-478.2 28,-478.2"/>
<text text-anchor="start" x="34.6105" y="-484.3" font-family="Helvetica,sans-Serif" font-size="11.00" fill="#000000">0 rows</text>
<polygon fill="#ffffff" stroke="transparent" points="70,-478.2 70,-497.2 96,-497.2 96,-478.2 70,-478.2"/>
<polygon fill="none" stroke="#000000" points="70,-478.2 70,-497.2 96,-497.2 96,-478.2 70,-478.2"/>
<text text-anchor="start" x="77.4053" y="-484.3" font-family="Helvetica,sans-Serif" font-size="11.00" fill="#000000">2 &gt;</text>
</a>
</g>
</g>
<!-- test -->
<g id="node2" class="node">
<title>test</title>
<g id="a_node2"><a xlink:href="../../tables/test.html" xlink:title="test" target="_top">
<polygon fill="#ffffff" stroke="transparent" points="145,-38.2 145,-586.2 244,-586.2 244,-38.2 145,-38.2"/>
<polygon fill="#f5f5f5" stroke="transparent" points="145.5,-563.2 145.5,-586.2 244.5,-586.2 244.5,-563.2 145.5,-563.2"/>
<polygon fill="none" stroke="#000000" points="145.5,-563.2 145.5,-586.2 244.5,-586.2 244.5,-563.2 145.5,-563.2"/>
<text text-anchor="start" x="150.1357" y="-571.8" font-family="Helvetica,sans-Serif" font-weight="bold" font-size="11.00" fill="#000000">test</text>
<text text-anchor="start" x="209.5437" y="-571.3" font-family="Helvetica,sans-Serif" font-size="11.00" fill="#000000">[table]</text>
<polygon fill="#ffffff" stroke="transparent" points="145.5,-541.2 145.5,-563.2 244.5,-563.2 244.5,-541.2 145.5,-541.2"/>
<polygon fill="none" stroke="#000000" points="145.5,-541.2 145.5,-563.2 244.5,-563.2 244.5,-541.2 145.5,-541.2"/>
<text text-anchor="start" x="165.5" y="-548.3" font-family="Helvetica,sans-Serif" font-size="11.00" fill="#000000">id</text>
<polygon fill="#ffffff" stroke="transparent" points="145.5,-519.2 145.5,-541.2 244.5,-541.2 244.5,-519.2 145.5,-519.2"/>
<polygon fill="none" stroke="#000000" points="145.5,-519.2 145.5,-541.2 244.5,-541.2 244.5,-519.2 145.5,-519.2"/>
<image xlink:href="../../images/foreignKeys.png" width="11px" height="12px" preserveAspectRatio="xMinYMin meet" x="150.5" y="-536.2"/>
<text text-anchor="start" x="165.5" y="-526.3" font-family="Helvetica,sans-Serif" font-size="11.00" fill="#000000">sub_id</text>
<polygon fill="none" stroke="#000000" points="145.5,-497.2 145.5,-519.2 244.5,-519.2 244.5,-497.2 145.5,-497.2"/>
<image xlink:href="../../images/foreignKeys.png" width="11px" height="12px" preserveAspectRatio="xMinYMin meet" x="150.5" y="-514.2"/>
<text text-anchor="start" x="165.5" y="-504.3" font-family="Helvetica,sans-Serif" font-size="11.00" fill="#000000">sub_category</text>
<polygon fill="none" stroke="#000000" points="145.5,-475.2 145.5,-497.2 244.5,-497.2 244.5,-475.2 145.5,-475.2"/>
<text text-anchor="start" x="165.5" y="-482.3" font-family="Helvetica,sans-Serif" font-size="11.00" fill="#000000">p2</text>
<polygon fill="none" stroke="#000000" points="145.5,-453.2 145.5,-475.2 244.5,-475.2 244.5,-453.2 145.5,-453.2"/>
<text text-anchor="start" x="165.5" y="-460.3" font-family="Helvetica,sans-Serif" font-size="11.00" fill="#000000">p3</text>
<polygon fill="none" stroke="#000000" points="145.5,-431.2 145.5,-453.2 244.5,-453.2 244.5,-431.2 145.5,-431.2"/>
<text text-anchor="start" x="165.5" y="-438.3" font-family="Helvetica,sans-Serif" font-size="11.00" fill="#000000">p4</text>
<polygon fill="none" stroke="#000000" points="145.5,-409.2 145.5,-431.2 244.5,-431.2 244.5,-409.2 145.5,-409.2"/>
<text text-anchor="start" x="165.5" y="-416.3" font-family="Helvetica,sans-Serif" font-size="11.00" fill="#000000">p5</text>
<polygon fill="none" stroke="#000000" points="145.5,-387.2 145.5,-409.2 244.5,-409.2 244.5,-387.2 145.5,-387.2"/>
<text text-anchor="start" x="165.5" y="-394.3" font-family="Helvetica,sans-Serif" font-size="11.00" fill="#000000">p6</text>
<polygon fill="none" stroke="#000000" points="145.5,-365.2 145.5,-387.2 244.5,-387.2 244.5,-365.2 145.5,-365.2"/>
<text text-anchor="start" x="165.5" y="-372.3" font-family="Helvetica,sans-Serif" font-size="11.00" fill="#000000">p7</text>
<polygon fill="none" stroke="#000000" points="145.5,-343.2 145.5,-365.2 244.5,-365.2 244.5,-343.2 145.5,-343.2"/>
<text text-anchor="start" x="165.5" y="-350.3" font-family="Helvetica,sans-Serif" font-size="11.00" fill="#000000">p8</text>
<polygon fill="none" stroke="#000000" points="145.5,-321.2 145.5,-343.2 244.5,-343.2 244.5,-321.2 145.5,-321.2"/>
<text text-anchor="start" x="165.5" y="-328.3" font-family="Helvetica,sans-Serif" font-size="11.00" fill="#000000">p9</text>
<polygon fill="none" stroke="#000000" points="145.5,-299.2 145.5,-321.2 244.5,-321.2 244.5,-299.2 145.5,-299.2"/>
<text text-anchor="start" x="165.5" y="-306.3" font-family="Helvetica,sans-Serif" font-size="11.00" fill="#000000">p10</text>
<polygon fill="none" stroke="#000000" points="145.5,-277.2 145.5,-299.2 244.5,-299.2 244.5,-277.2 145.5,-277.2"/>
<text text-anchor="start" x="165.5" y="-284.3" font-family="Helvetica,sans-Serif" font-size="11.00" fill="#000000">p11</text>
<polygon fill="none" stroke="#000000" points="145.5,-255.2 145.5,-277.2 244.5,-277.2 244.5,-255.2 145.5,-255.2"/>
<text text-anchor="start" x="165.5" y="-262.3" font-family="Helvetica,sans-Serif" font-size="11.00" fill="#000000">p12</text>
<polygon fill="none" stroke="#000000" points="145.5,-233.2 145.5,-255.2 244.5,-255.2 244.5,-233.2 145.5,-233.2"/>
<text text-anchor="start" x="165.5" y="-240.3" font-family="Helvetica,sans-Serif" font-size="11.00" fill="#000000">p13</text>
<polygon fill="none" stroke="#000000" points="145.5,-211.2 145.5,-233.2 244.5,-233.2 244.5,-211.2 145.5,-211.2"/>
<text text-anchor="start" x="165.5" y="-218.3" font-family="Helvetica,sans-Serif" font-size="11.00" fill="#000000">p14</text>
<polygon fill="none" stroke="#000000" points="145.5,-189.2 145.5,-211.2 244.5,-211.2 244.5,-189.2 145.5,-189.2"/>
<text text-anchor="start" x="165.5" y="-196.3" font-family="Helvetica,sans-Serif" font-size="11.00" fill="#000000">p15</text>
<polygon fill="none" stroke="#000000" points="145.5,-167.2 145.5,-189.2 244.5,-189.2 244.5,-167.2 145.5,-167.2"/>
<text text-anchor="start" x="165.5" y="-174.3" font-family="Helvetica,sans-Serif" font-size="11.00" fill="#000000">p16</text>
<polygon fill="none" stroke="#000000" points="145.5,-145.2 145.5,-167.2 244.5,-167.2 244.5,-145.2 145.5,-145.2"/>
<text text-anchor="start" x="165.5" y="-152.3" font-family="Helvetica,sans-Serif" font-size="11.00" fill="#000000">p17</text>
<polygon fill="none" stroke="#000000" points="145.5,-123.2 145.5,-145.2 244.5,-145.2 244.5,-123.2 145.5,-123.2"/>
<text text-anchor="start" x="165.5" y="-130.3" font-family="Helvetica,sans-Serif" font-size="11.00" fill="#000000">p18</text>
<polygon fill="none" stroke="#000000" points="145.5,-101.2 145.5,-123.2 244.5,-123.2 244.5,-101.2 145.5,-101.2"/>
<text text-anchor="start" x="165.5" y="-108.3" font-family="Helvetica,sans-Serif" font-size="11.00" fill="#000000">p19</text>
<polygon fill="none" stroke="#000000" points="145.5,-79.2 145.5,-101.2 244.5,-101.2 244.5,-79.2 145.5,-79.2"/>
<text text-anchor="start" x="165.5" y="-86.3" font-family="Helvetica,sans-Serif" font-size="11.00" fill="#000000">p20</text>
<polygon fill="none" stroke="#000000" points="145.5,-57.2 145.5,-79.2 244.5,-79.2 244.5,-57.2 145.5,-57.2"/>
<text text-anchor="start" x="165.5" y="-64.3" font-family="Helvetica,sans-Serif" font-size="11.00" fill="#000000">p21</text>
<polygon fill="#ffffff" stroke="transparent" points="145.5,-38.2 145.5,-57.2 180.5,-57.2 180.5,-38.2 145.5,-38.2"/>
<polygon fill="none" stroke="#000000" points="145.5,-38.2 145.5,-57.2 180.5,-57.2 180.5,-38.2 145.5,-38.2"/>
<text text-anchor="start" x="148.5" y="-44.3" font-family="Helvetica,sans-Serif" font-size="11.00" fill="#000000">&lt; 2</text>
<polygon fill="#ffffff" stroke="transparent" points="180.5,-38.2 180.5,-57.2 225.5,-57.2 225.5,-38.2 180.5,-38.2"/>
<polygon fill="none" stroke="#000000" points="180.5,-38.2 180.5,-57.2 225.5,-57.2 225.5,-38.2 180.5,-38.2"/>
<text text-anchor="start" x="190.1105" y="-44.3" font-family="Helvetica,sans-Serif" font-size="11.00" fill="#000000">0 rows</text>
<polygon fill="#ffffff" stroke="transparent" points="225.5,-38.2 225.5,-57.2 244.5,-57.2 244.5,-38.2 225.5,-38.2"/>
<polygon fill="none" stroke="#000000" points="225.5,-38.2 225.5,-57.2 244.5,-57.2 244.5,-38.2 225.5,-38.2"/>
<text text-anchor="start" x="235.3862" y="-44.3" font-family="Helvetica,sans-Serif" font-size="11.00" fill="#000000"> &#160;</text>
</a>
</g>
</g>
<!-- test&#45;&gt;sub_test -->
<g id="edge1" class="edge">
<title>test:w&#45;&gt;sub_test:e</title>
<path fill="none" stroke="#000000" d="M130.8428,-508.2C119.4139,-508.2 112.1563,-508.2 96,-508.2"/>
<polygon fill="#000000" stroke="#000000" points="137.5,-508.2001 145.5,-511.8 141.5,-508.2 145.5,-508.2 145.5,-508.2 145.5,-508.2 141.5,-508.2 145.5,-504.6 137.5,-508.2001 137.5,-508.2001"/>
<ellipse fill="none" stroke="#000000" cx="134.3" cy="-508.2001" rx="3.2" ry="3.2"/>
</g>
<!-- test&#45;&gt;sub_test -->
<g id="edge2" class="edge">
<title>test:w&#45;&gt;sub_test:e</title>
<path fill="none" stroke="#000000" d="M130.8428,-530.2C119.4139,-530.2 112.1563,-530.2 96,-530.2"/>
<polygon fill="#000000" stroke="#000000" points="137.5,-530.2001 145.5,-533.8 141.5,-530.2 145.5,-530.2 145.5,-530.2 145.5,-530.2 141.5,-530.2 145.5,-526.6 137.5,-530.2001 137.5,-530.2001"/>
<ellipse fill="none" stroke="#000000" cx="134.3" cy="-530.2001" rx="3.2" ry="3.2"/>
</g>
</g>
</svg>
