<?xml version="1.0" encoding="UTF-8" standalone="no"?>
<!DOCTYPE svg PUBLIC "-//W3C//DTD SVG 1.1//EN"
 "http://www.w3.org/Graphics/SVG/1.1/DTD/svg11.dtd">
<!-- Generated by graphviz version 2.40.1 (20161225.0304)
 -->
<!-- Title: orphans Pages: 1 -->
<svg width="236pt" height="1035pt"
 viewBox="0.00 0.00 236.00 1035.00" xmlns="http://www.w3.org/2000/svg" xmlns:xlink="http://www.w3.org/1999/xlink">
<g id="graph0" class="graph" transform="scale(1 1) rotate(0) translate(4 1031)">
<title>orphans</title>
<polygon fill="#ffffff" stroke="transparent" points="-4,4 -4,-1031 232,-1031 232,4 -4,4"/>
<!-- auto_inc_test -->
<g id="node1" class="node">
<title>auto_inc_test</title>
<g id="a_node1"><a xlink:href="../../tables/auto_inc_test.html" xlink:title="auto_inc_test" target="_top">
<polygon fill="#ffffff" stroke="transparent" points="29,-4 29,-94 199,-94 199,-4 29,-4"/>
<polygon fill="#f5f5f5" stroke="transparent" points="31,-69 31,-92 197,-92 197,-69 31,-69"/>
<polygon fill="none" stroke="#000000" points="31,-69 31,-92 197,-92 197,-69 31,-69"/>
<text text-anchor="start" x="36" y="-77.6" font-family="Helvetica,sans-Serif" font-weight="bold" font-size="11.00" fill="#000000">auto_inc_test</text>
<text text-anchor="start" x="162.0437" y="-77.1" font-family="Helvetica,sans-Serif" font-size="11.00" fill="#000000">[table]</text>
<polygon fill="#ffffff" stroke="transparent" points="31,-47 31,-69 129,-69 129,-47 31,-47"/>
<polygon fill="none" stroke="#000000" points="31,-47 31,-69 129,-69 129,-47 31,-47"/>
<text text-anchor="start" x="51" y="-54.1" font-family="Helvetica,sans-Serif" font-size="11.00" fill="#000000">id</text>
<polygon fill="none" stroke="#000000" points="129,-47 129,-69 197,-69 197,-47 129,-47"/>
<text text-anchor="start" x="132" y="-54.7" font-family="Helvetica,sans-Serif" font-size="11.00" fill="#000000">bigint(64)</text>
<polygon fill="none" stroke="#000000" points="31,-25 31,-47 129,-47 129,-25 31,-25"/>
<text text-anchor="start" x="51" y="-32.1" font-family="Helvetica,sans-Serif" font-size="11.00" fill="#000000">phone</text>
<polygon fill="none" stroke="#000000" points="129,-25 129,-47 197,-47 197,-25 129,-25"/>
<text text-anchor="start" x="131.8315" y="-32.7" font-family="Helvetica,sans-Serif" font-size="11.00" fill="#000000">varchar(255)</text>
<polygon fill="#ffffff" stroke="transparent" points="31,-6 31,-25 71,-25 71,-6 31,-6"/>
<polygon fill="none" stroke="#000000" points="31,-6 31,-25 71,-25 71,-6 31,-6"/>
<text text-anchor="start" x="34" y="-12.1" font-family="Helvetica,sans-Serif" font-size="11.00" fill="#000000">&lt; 0</text>
<polygon fill="#ffffff" stroke="transparent" points="71,-6 71,-25 129,-25 129,-6 71,-6"/>
<polygon fill="none" stroke="#000000" points="71,-6 71,-25 129,-25 129,-6 71,-6"/>
<text text-anchor="start" x="93.6105" y="-12.1" font-family="Helvetica,sans-Serif" font-size="11.00" fill="#000000">0 rows</text>
<polygon fill="#ffffff" stroke="transparent" points="129,-6 129,-25 197,-25 197,-6 129,-6"/>
<polygon fill="none" stroke="#000000" points="129,-6 129,-25 197,-25 197,-6 129,-6"/>
<text text-anchor="start" x="178.4053" y="-12.1" font-family="Helvetica,sans-Serif" font-size="11.00" fill="#000000">0 &gt;</text>
<polygon fill="none" stroke="#000000" stroke-width="2" points="30,-5 30,-93 198,-93 198,-5 30,-5"/>
</a>
</g>
</g>
<!-- country -->
<g id="node2" class="node">
<title>country</title>
<g id="a_node2"><a xlink:href="../../tables/country.html" xlink:title="country" target="_top">
<polygon fill="#ffffff" stroke="transparent" points="33.5,-115 33.5,-249 194.5,-249 194.5,-115 33.5,-115"/>
<polygon fill="#f5f5f5" stroke="transparent" points="36,-224 36,-247 193,-247 193,-224 36,-224"/>
<polygon fill="none" stroke="#000000" points="36,-224 36,-247 193,-247 193,-224 36,-224"/>
<text text-anchor="start" x="41" y="-232.6" font-family="Helvetica,sans-Serif" font-weight="bold" font-size="11.00" fill="#000000">country</text>
<text text-anchor="start" x="158.0437" y="-232.1" font-family="Helvetica,sans-Serif" font-size="11.00" fill="#000000">[table]</text>
<polygon fill="none" stroke="#000000" points="36,-202 36,-224 118,-224 118,-202 36,-202"/>
<text text-anchor="start" x="56" y="-209.1" font-family="Helvetica,sans-Serif" font-size="11.00" fill="#000000">code</text>
<polygon fill="none" stroke="#000000" points="118,-202 118,-224 193,-224 193,-202 118,-202"/>
<text text-anchor="start" x="121" y="-209.7" font-family="Helvetica,sans-Serif" font-size="11.00" fill="#000000">char(3)</text>
<polygon fill="none" stroke="#000000" points="36,-180 36,-202 118,-202 118,-180 36,-180"/>
<text text-anchor="start" x="56" y="-187.1" font-family="Helvetica,sans-Serif" font-size="11.00" fill="#000000">name</text>
<polygon fill="none" stroke="#000000" points="118,-180 118,-202 193,-202 193,-180 118,-180"/>
<text text-anchor="start" x="121" y="-187.7" font-family="Helvetica,sans-Serif" font-size="11.00" fill="#000000">text</text>
<polygon fill="none" stroke="#000000" points="36,-158 36,-180 118,-180 118,-158 36,-158"/>
<text text-anchor="start" x="56" y="-165.1" font-family="Helvetica,sans-Serif" font-size="11.00" fill="#000000">population</text>
<polygon fill="none" stroke="#000000" points="118,-158 118,-180 193,-180 193,-158 118,-158"/>
<text text-anchor="start" x="121" y="-165.7" font-family="Helvetica,sans-Serif" font-size="11.00" fill="#000000">int(11)</text>
<polygon fill="none" stroke="#000000" points="36,-136 36,-158 118,-158 118,-136 36,-136"/>
<text text-anchor="start" x="56" y="-143.1" font-family="Helvetica,sans-Serif" font-size="11.00" fill="#000000">gnp</text>
<polygon fill="none" stroke="#000000" points="118,-136 118,-158 193,-158 193,-136 118,-136"/>
<text text-anchor="start" x="120.6647" y="-143.7" font-family="Helvetica,sans-Serif" font-size="11.00" fill="#000000">decimal(10, 2)</text>
<polygon fill="#ffffff" stroke="transparent" points="36,-117 36,-136 68,-136 68,-117 36,-117"/>
<polygon fill="none" stroke="#000000" points="36,-117 36,-136 68,-136 68,-117 36,-117"/>
<text text-anchor="start" x="39" y="-123.1" font-family="Helvetica,sans-Serif" font-size="11.00" fill="#000000">&lt; 0</text>
<polygon fill="#ffffff" stroke="transparent" points="68,-117 68,-136 118,-136 118,-117 68,-117"/>
<polygon fill="none" stroke="#000000" points="68,-117 68,-136 118,-136 118,-117 68,-117"/>
<text text-anchor="start" x="82.6105" y="-123.1" font-family="Helvetica,sans-Serif" font-size="11.00" fill="#000000">0 rows</text>
<polygon fill="#ffffff" stroke="transparent" points="118,-117 118,-136 193,-136 193,-117 118,-117"/>
<polygon fill="none" stroke="#000000" points="118,-117 118,-136 193,-136 193,-117 118,-117"/>
<text text-anchor="start" x="174.4053" y="-123.1" font-family="Helvetica,sans-Serif" font-size="11.00" fill="#000000">0 &gt;</text>
<polygon fill="none" stroke="#000000" stroke-width="2" points="34.5,-116 34.5,-248 193.5,-248 193.5,-116 34.5,-116"/>
</a>
</g>
</g>
<!-- country_test -->
<g id="node3" class="node">
<title>country_test</title>
<g id="a_node3"><a xlink:href="../../tables/country_test.html" xlink:title="country_test" target="_top">
<polygon fill="#ffffff" stroke="transparent" points="31.5,-270 31.5,-492 196.5,-492 196.5,-270 31.5,-270"/>
<polygon fill="#f5f5f5" stroke="transparent" points="34,-467 34,-490 195,-490 195,-467 34,-467"/>
<polygon fill="none" stroke="#000000" points="34,-467 34,-490 195,-490 195,-467 34,-467"/>
<text text-anchor="start" x="39" y="-475.6" font-family="Helvetica,sans-Serif" font-weight="bold" font-size="11.00" fill="#000000">country_test</text>
<text text-anchor="start" x="160.0437" y="-475.1" font-family="Helvetica,sans-Serif" font-size="11.00" fill="#000000">[table]</text>
<polygon fill="#ffffff" stroke="transparent" points="34,-445 34,-467 127,-467 127,-445 34,-445"/>
<polygon fill="none" stroke="#000000" points="34,-445 34,-467 127,-467 127,-445 34,-445"/>
<text text-anchor="start" x="54" y="-452.1" font-family="Helvetica,sans-Serif" font-size="11.00" fill="#000000">id</text>
<polygon fill="none" stroke="#000000" points="127,-445 127,-467 195,-467 195,-445 127,-445"/>
<text text-anchor="start" x="130" y="-452.7" font-family="Helvetica,sans-Serif" font-size="11.00" fill="#000000">tinyint(255)</text>
<polygon fill="none" stroke="#000000" points="34,-423 34,-445 127,-445 127,-423 34,-423"/>
<text text-anchor="start" x="54" y="-430.1" font-family="Helvetica,sans-Serif" font-size="11.00" fill="#000000">code</text>
<polygon fill="none" stroke="#000000" points="127,-423 127,-445 195,-445 195,-423 127,-423"/>
<text text-anchor="start" x="130" y="-430.7" font-family="Helvetica,sans-Serif" font-size="11.00" fill="#000000">char(3)</text>
<polygon fill="none" stroke="#000000" points="34,-401 34,-423 127,-423 127,-401 34,-401"/>
<text text-anchor="start" x="54" y="-408.1" font-family="Helvetica,sans-Serif" font-size="11.00" fill="#000000">name</text>
<polygon fill="none" stroke="#000000" points="127,-401 127,-423 195,-423 195,-401 127,-401"/>
<text text-anchor="start" x="129.8315" y="-408.7" font-family="Helvetica,sans-Serif" font-size="11.00" fill="#000000">varchar(255)</text>
<polygon fill="none" stroke="#000000" points="34,-379 34,-401 127,-401 127,-379 34,-379"/>
<text text-anchor="start" x="54" y="-386.1" font-family="Helvetica,sans-Serif" font-size="11.00" fill="#000000">population</text>
<polygon fill="none" stroke="#000000" points="127,-379 127,-401 195,-401 195,-379 127,-379"/>
<text text-anchor="start" x="130" y="-386.7" font-family="Helvetica,sans-Serif" font-size="11.00" fill="#000000">int(11)</text>
<polygon fill="none" stroke="#000000" points="34,-357 34,-379 127,-379 127,-357 34,-357"/>
<text text-anchor="start" x="54" y="-364.1" font-family="Helvetica,sans-Serif" font-size="11.00" fill="#000000">gnp</text>
<polygon fill="none" stroke="#000000" points="127,-357 127,-379 195,-379 195,-357 127,-357"/>
<text text-anchor="start" x="130" y="-364.7" font-family="Helvetica,sans-Serif" font-size="11.00" fill="#000000">float(10)</text>
<polygon fill="none" stroke="#000000" points="34,-335 34,-357 127,-357 127,-335 34,-335"/>
<text text-anchor="start" x="54" y="-342.1" font-family="Helvetica,sans-Serif" font-size="11.00" fill="#000000">auto_inc_id</text>
<polygon fill="none" stroke="#000000" points="127,-335 127,-357 195,-357 195,-335 127,-335"/>
<text text-anchor="start" x="130" y="-342.7" font-family="Helvetica,sans-Serif" font-size="11.00" fill="#000000">bigint(64)</text>
<polygon fill="none" stroke="#000000" points="34,-313 34,-335 127,-335 127,-313 34,-313"/>
<text text-anchor="start" x="54" y="-320.1" font-family="Helvetica,sans-Serif" font-size="11.00" fill="#000000">updated_at</text>
<polygon fill="none" stroke="#000000" points="127,-313 127,-335 195,-335 195,-313 127,-313"/>
<text text-anchor="start" x="130" y="-320.7" font-family="Helvetica,sans-Serif" font-size="11.00" fill="#000000">timestamp</text>
<polygon fill="none" stroke="#000000" points="34,-291 34,-313 127,-313 127,-291 34,-291"/>
<text text-anchor="start" x="54" y="-298.1" font-family="Helvetica,sans-Serif" font-size="11.00" fill="#000000">created_at</text>
<polygon fill="none" stroke="#000000" points="127,-291 127,-313 195,-313 195,-291 127,-291"/>
<text text-anchor="start" x="130" y="-298.7" font-family="Helvetica,sans-Serif" font-size="11.00" fill="#000000">timestamp</text>
<polygon fill="#ffffff" stroke="transparent" points="34,-272 34,-291 72,-291 72,-272 34,-272"/>
<polygon fill="none" stroke="#000000" points="34,-272 34,-291 72,-291 72,-272 34,-272"/>
<text text-anchor="start" x="37" y="-278.1" font-family="Helvetica,sans-Serif" font-size="11.00" fill="#000000">&lt; 0</text>
<polygon fill="#ffffff" stroke="transparent" points="72,-272 72,-291 127,-291 127,-272 72,-272"/>
<polygon fill="none" stroke="#000000" points="72,-272 72,-291 127,-291 127,-272 72,-272"/>
<text text-anchor="start" x="91.6105" y="-278.1" font-family="Helvetica,sans-Serif" font-size="11.00" fill="#000000">0 rows</text>
<polygon fill="#ffffff" stroke="transparent" points="127,-272 127,-291 195,-291 195,-272 127,-272"/>
<polygon fill="none" stroke="#000000" points="127,-272 127,-291 195,-291 195,-272 127,-272"/>
<text text-anchor="start" x="176.4053" y="-278.1" font-family="Helvetica,sans-Serif" font-size="11.00" fill="#000000">0 &gt;</text>
<polygon fill="none" stroke="#000000" stroke-width="2" points="32.5,-271 32.5,-491 195.5,-491 195.5,-271 32.5,-271"/>
</a>
</g>
</g>
<!-- mysql_column_test -->
<g id="node4" class="node">
<title>mysql_column_test</title>
<g id="a_node4"><a xlink:href="../../tables/mysql_column_test.html" xlink:title="mysql_column_test" target="_top">
<polygon fill="#ffffff" stroke="transparent" points="8,-513 8,-691 220,-691 220,-513 8,-513"/>
<polygon fill="#f5f5f5" stroke="transparent" points="10,-666 10,-689 218,-689 218,-666 10,-666"/>
<polygon fill="none" stroke="#000000" points="10,-666 10,-689 218,-689 218,-666 10,-666"/>
<text text-anchor="start" x="15" y="-674.6" font-family="Helvetica,sans-Serif" font-weight="bold" font-size="11.00" fill="#000000">mysql_column_test</text>
<text text-anchor="start" x="183.0437" y="-674.1" font-family="Helvetica,sans-Serif" font-size="11.00" fill="#000000">[table]</text>
<polygon fill="none" stroke="#000000" points="10,-644 10,-666 143,-666 143,-644 10,-644"/>
<text text-anchor="start" x="30" y="-651.1" font-family="Helvetica,sans-Serif" font-size="11.00" fill="#000000">binary</text>
<polygon fill="none" stroke="#000000" points="143,-644 143,-666 218,-666 218,-644 143,-644"/>
<text text-anchor="start" x="146" y="-651.7" font-family="Helvetica,sans-Serif" font-size="11.00" fill="#000000">binary(0)</text>
<polygon fill="none" stroke="#000000" points="10,-622 10,-644 143,-644 143,-622 10,-622"/>
<text text-anchor="start" x="30" y="-629.1" font-family="Helvetica,sans-Serif" font-size="11.00" fill="#000000">tinyblob</text>
<polygon fill="none" stroke="#000000" points="143,-622 143,-644 218,-644 218,-622 143,-622"/>
<text text-anchor="start" x="146" y="-629.7" font-family="Helvetica,sans-Serif" font-size="11.00" fill="#000000">tinyblob</text>
<polygon fill="none" stroke="#000000" points="10,-600 10,-622 143,-622 143,-600 10,-600"/>
<text text-anchor="start" x="30" y="-607.1" font-family="Helvetica,sans-Serif" font-size="11.00" fill="#000000">text</text>
<polygon fill="none" stroke="#000000" points="143,-600 143,-622 218,-622 218,-600 143,-600"/>
<text text-anchor="start" x="146" y="-607.7" font-family="Helvetica,sans-Serif" font-size="11.00" fill="#000000">text</text>
<polygon fill="none" stroke="#000000" points="10,-578 10,-600 143,-600 143,-578 10,-578"/>
<text text-anchor="start" x="30" y="-585.1" font-family="Helvetica,sans-Serif" font-size="11.00" fill="#000000">blob</text>
<polygon fill="none" stroke="#000000" points="143,-578 143,-600 218,-600 218,-578 143,-578"/>
<text text-anchor="start" x="146" y="-585.7" font-family="Helvetica,sans-Serif" font-size="11.00" fill="#000000">longblob</text>
<polygon fill="none" stroke="#000000" points="10,-556 10,-578 143,-578 143,-556 10,-556"/>
<text text-anchor="start" x="30" y="-563.1" font-family="Helvetica,sans-Serif" font-size="11.00" fill="#000000">decimal</text>
<polygon fill="none" stroke="#000000" points="143,-556 143,-578 218,-578 218,-556 143,-556"/>
<text text-anchor="start" x="145.6647" y="-563.7" font-family="Helvetica,sans-Serif" font-size="11.00" fill="#000000">decimal(65, 6)</text>
<polygon fill="none" stroke="#000000" points="10,-534 10,-556 143,-556 143,-534 10,-534"/>
<text text-anchor="start" x="30" y="-541.1" font-family="Helvetica,sans-Serif" font-size="11.00" fill="#000000">float</text>
<polygon fill="none" stroke="#000000" points="143,-534 143,-556 218,-556 218,-534 143,-534"/>
<text text-anchor="start" x="146" y="-541.7" font-family="Helvetica,sans-Serif" font-size="11.00" fill="#000000">float(10)</text>
<polygon fill="#ffffff" stroke="transparent" points="10,-515 10,-534 68,-534 68,-515 10,-515"/>
<polygon fill="none" stroke="#000000" points="10,-515 10,-534 68,-534 68,-515 10,-515"/>
<text text-anchor="start" x="13" y="-521.1" font-family="Helvetica,sans-Serif" font-size="11.00" fill="#000000">&lt; 0</text>
<polygon fill="#ffffff" stroke="transparent" points="68,-515 68,-534 143,-534 143,-515 68,-515"/>
<polygon fill="none" stroke="#000000" points="68,-515 68,-534 143,-534 143,-515 68,-515"/>
<text text-anchor="start" x="107.6105" y="-521.1" font-family="Helvetica,sans-Serif" font-size="11.00" fill="#000000">0 rows</text>
<polygon fill="#ffffff" stroke="transparent" points="143,-515 143,-534 218,-534 218,-515 143,-515"/>
<polygon fill="none" stroke="#000000" points="143,-515 143,-534 218,-534 218,-515 143,-515"/>
<text text-anchor="start" x="199.4053" y="-521.1" font-family="Helvetica,sans-Serif" font-size="11.00" fill="#000000">0 &gt;</text>
<polygon fill="none" stroke="#000000" stroke-width="2" points="9,-514 9,-690 219,-690 219,-514 9,-514"/>
</a>
</g>
</g>
<!-- person -->
<g id="node5" class="node">
<title>person</title>
<g id="a_node5"><a xlink:href="../../tables/person.html" xlink:title="person" target="_top">
<polygon fill="#ffffff" stroke="transparent" points="47.5,-712 47.5,-824 180.5,-824 180.5,-712 47.5,-712"/>
<polygon fill="#f5f5f5" stroke="transparent" points="50,-799 50,-822 179,-822 179,-799 50,-799"/>
<polygon fill="none" stroke="#000000" points="50,-799 50,-822 179,-822 179,-799 50,-799"/>
<text text-anchor="start" x="55" y="-807.6" font-family="Helvetica,sans-Serif" font-weight="bold" font-size="11.00" fill="#000000">person</text>
<text text-anchor="start" x="144.0437" y="-807.1" font-family="Helvetica,sans-Serif" font-size="11.00" fill="#000000">[table]</text>
<polygon fill="#ffffff" stroke="transparent" points="50,-777 50,-799 111,-799 111,-777 50,-777"/>
<polygon fill="none" stroke="#000000" points="50,-777 50,-799 111,-799 111,-777 50,-777"/>
<text text-anchor="start" x="70" y="-784.1" font-family="Helvetica,sans-Serif" font-size="11.00" fill="#000000">id</text>
<polygon fill="none" stroke="#000000" points="111,-777 111,-799 179,-799 179,-777 111,-777"/>
<text text-anchor="start" x="114" y="-784.7" font-family="Helvetica,sans-Serif" font-size="11.00" fill="#000000">bigint(20)</text>
<polygon fill="#ffffff" stroke="transparent" points="50,-755 50,-777 111,-777 111,-755 50,-755"/>
<polygon fill="none" stroke="#000000" points="50,-755 50,-777 111,-777 111,-755 50,-755"/>
<text text-anchor="start" x="70" y="-762.1" font-family="Helvetica,sans-Serif" font-size="11.00" fill="#000000">name</text>
<polygon fill="none" stroke="#000000" points="111,-755 111,-777 179,-777 179,-755 111,-755"/>
<text text-anchor="start" x="113.8315" y="-762.7" font-family="Helvetica,sans-Serif" font-size="11.00" fill="#000000">varchar(255)</text>
<polygon fill="none" stroke="#000000" points="50,-733 50,-755 111,-755 111,-733 50,-733"/>
<text text-anchor="start" x="70" y="-740.1" font-family="Helvetica,sans-Serif" font-size="11.00" fill="#000000">age</text>
<polygon fill="none" stroke="#000000" points="111,-733 111,-755 179,-755 179,-733 111,-733"/>
<text text-anchor="start" x="114" y="-740.7" font-family="Helvetica,sans-Serif" font-size="11.00" fill="#000000">smallint(6)</text>
<polygon fill="#ffffff" stroke="transparent" points="50,-714 50,-733 72,-733 72,-714 50,-714"/>
<polygon fill="none" stroke="#000000" points="50,-714 50,-733 72,-733 72,-714 50,-714"/>
<text text-anchor="start" x="53" y="-720.1" font-family="Helvetica,sans-Serif" font-size="11.00" fill="#000000">&lt; 0</text>
<polygon fill="#ffffff" stroke="transparent" points="72,-714 72,-733 111,-733 111,-714 72,-714"/>
<polygon fill="none" stroke="#000000" points="72,-714 72,-733 111,-733 111,-714 72,-714"/>
<text text-anchor="start" x="75.6105" y="-720.1" font-family="Helvetica,sans-Serif" font-size="11.00" fill="#000000">0 rows</text>
<polygon fill="#ffffff" stroke="transparent" points="111,-714 111,-733 179,-733 179,-714 111,-714"/>
<polygon fill="none" stroke="#000000" points="111,-714 111,-733 179,-733 179,-714 111,-714"/>
<text text-anchor="start" x="160.4053" y="-720.1" font-family="Helvetica,sans-Serif" font-size="11.00" fill="#000000">0 &gt;</text>
<polygon fill="none" stroke="#000000" stroke-width="2" points="48.5,-713 48.5,-823 179.5,-823 179.5,-713 48.5,-713"/>
</a>
</g>
</g>
<!-- user -->
<g id="node6" class="node">
<title>user</title>
<g id="a_node6"><a xlink:href="../../tables/user.html" xlink:title="user" target="_top">
<polygon fill="#ffffff" stroke="transparent" points="35.5,-845 35.5,-1023 192.5,-1023 192.5,-845 35.5,-845"/>
<polygon fill="#f5f5f5" stroke="transparent" points="38,-998 38,-1021 191,-1021 191,-998 38,-998"/>
<polygon fill="none" stroke="#000000" points="38,-998 38,-1021 191,-1021 191,-998 38,-998"/>
<text text-anchor="start" x="42.8042" y="-1006.6" font-family="Helvetica,sans-Serif" font-weight="bold" font-size="11.00" fill="#000000">user</text>
<text text-anchor="start" x="156.0437" y="-1006.1" font-family="Helvetica,sans-Serif" font-size="11.00" fill="#000000">[table]</text>
<polygon fill="#ffffff" stroke="transparent" points="38,-976 38,-998 123,-998 123,-976 38,-976"/>
<polygon fill="none" stroke="#000000" points="38,-976 38,-998 123,-998 123,-976 38,-976"/>
<text text-anchor="start" x="58" y="-983.1" font-family="Helvetica,sans-Serif" font-size="11.00" fill="#000000">id</text>
<polygon fill="none" stroke="#000000" points="123,-976 123,-998 191,-998 191,-976 123,-976"/>
<text text-anchor="start" x="126" y="-983.7" font-family="Helvetica,sans-Serif" font-size="11.00" fill="#000000">bigint(20)</text>
<polygon fill="#ffffff" stroke="transparent" points="38,-954 38,-976 123,-976 123,-954 38,-954"/>
<polygon fill="none" stroke="#000000" points="38,-954 38,-976 123,-976 123,-954 38,-954"/>
<text text-anchor="start" x="58" y="-961.1" font-family="Helvetica,sans-Serif" font-size="11.00" fill="#000000">name</text>
<polygon fill="none" stroke="#000000" points="123,-954 123,-976 191,-976 191,-954 123,-954"/>
<text text-anchor="start" x="125.8315" y="-961.7" font-family="Helvetica,sans-Serif" font-size="11.00" fill="#000000">varchar(255)</text>
<polygon fill="#ffffff" stroke="transparent" points="38,-932 38,-954 123,-954 123,-932 38,-932"/>
<polygon fill="none" stroke="#000000" points="38,-932 38,-954 123,-954 123,-932 38,-932"/>
<text text-anchor="start" x="58" y="-939.1" font-family="Helvetica,sans-Serif" font-size="11.00" fill="#000000">age</text>
<polygon fill="none" stroke="#000000" points="123,-932 123,-954 191,-954 191,-932 123,-932"/>
<text text-anchor="start" x="126" y="-939.7" font-family="Helvetica,sans-Serif" font-size="11.00" fill="#000000">float(24)</text>
<polygon fill="none" stroke="#000000" points="38,-910 38,-932 123,-932 123,-910 38,-910"/>
<text text-anchor="start" x="58" y="-917.1" font-family="Helvetica,sans-Serif" font-size="11.00" fill="#000000">status</text>
<polygon fill="none" stroke="#000000" points="123,-910 123,-932 191,-932 191,-910 123,-910"/>
<text text-anchor="start" x="125.5301" y="-917.7" font-family="Helvetica,sans-Serif" font-size="11.00" fill="#000000">smallint(255)</text>
<polygon fill="none" stroke="#000000" points="38,-888 38,-910 123,-910 123,-888 38,-888"/>
<text text-anchor="start" x="58" y="-895.1" font-family="Helvetica,sans-Serif" font-size="11.00" fill="#000000">updated_at</text>
<polygon fill="none" stroke="#000000" points="123,-888 123,-910 191,-910 191,-888 123,-888"/>
<text text-anchor="start" x="126" y="-895.7" font-family="Helvetica,sans-Serif" font-size="11.00" fill="#000000">timestamp</text>
<polygon fill="none" stroke="#000000" points="38,-866 38,-888 123,-888 123,-866 38,-866"/>
<text text-anchor="start" x="58" y="-873.1" font-family="Helvetica,sans-Serif" font-size="11.00" fill="#000000">created_at</text>
<polygon fill="none" stroke="#000000" points="123,-866 123,-888 191,-888 191,-866 123,-866"/>
<text text-anchor="start" x="126" y="-873.7" font-family="Helvetica,sans-Serif" font-size="11.00" fill="#000000">timestamp</text>
<polygon fill="#ffffff" stroke="transparent" points="38,-847 38,-866 72,-866 72,-847 38,-847"/>
<polygon fill="none" stroke="#000000" points="38,-847 38,-866 72,-866 72,-847 38,-847"/>
<text text-anchor="start" x="41" y="-853.1" font-family="Helvetica,sans-Serif" font-size="11.00" fill="#000000">&lt; 0</text>
<polygon fill="#ffffff" stroke="transparent" points="72,-847 72,-866 123,-866 123,-847 72,-847"/>
<polygon fill="none" stroke="#000000" points="72,-847 72,-866 123,-866 123,-847 72,-847"/>
<text text-anchor="start" x="87.6105" y="-853.1" font-family="Helvetica,sans-Serif" font-size="11.00" fill="#000000">0 rows</text>
<polygon fill="#ffffff" stroke="transparent" points="123,-847 123,-866 191,-866 191,-847 123,-847"/>
<polygon fill="none" stroke="#000000" points="123,-847 123,-866 191,-866 191,-847 123,-847"/>
<text text-anchor="start" x="172.4053" y="-853.1" font-family="Helvetica,sans-Serif" font-size="11.00" fill="#000000">0 &gt;</text>
<polygon fill="none" stroke="#000000" stroke-width="2" points="36.5,-846 36.5,-1022 191.5,-1022 191.5,-846 36.5,-846"/>
</a>
</g>
</g>
</g>
</svg>
